<svg xmlns="http://www.w3.org/2000/svg" viewBox="0 0 64 64">
  <defs>
    <linearGradient id="purple" x1="0" y1="0" x2="1" y2="1">
      <stop stop-color="#6430d5"/>
      <stop offset="0.56" stop-color="#321184"/>
      <stop offset="1" stop-color="#170b4a"/>
    </linearGradient>
    <linearGradient id="gold" x1="0" y1="0" x2="1" y2="1">
      <stop stop-color="#fff5ad"/>
      <stop offset="0.45" stop-color="#ffd33f"/>
      <stop offset="1" stop-color="#ef8a13"/>
    </linearGradient>
  </defs>
  <rect x="2" y="2" width="60" height="60" rx="15" fill="#130a3c" stroke="#ef9b22" stroke-width="2"/>
  <rect x="6" y="6" width="52" height="52" rx="11" fill="url(#purple)"/>
  <path d="M32 9 39 25 55 32 39 39 32 55 25 39 9 32 25 25Z" fill="#170b4a" stroke="#230c69" stroke-width="3" stroke-linejoin="round"/>
  <path d="M32 11 39 25 53 32 39 39 32 53 25 39 11 32 25 25Z" fill="url(#gold)" stroke="#fff1a0" stroke-width="1.5" stroke-linejoin="round"/>
  <path d="M32 16 36 28 48 32 36 36 32 48 28 36 16 32 28 28Z" fill="#fff6bc" opacity="0.78"/>
  <path d="M32 11 32 53M11 32H53" stroke="#fff8cb" stroke-opacity="0.55" stroke-width="1"/>
  <circle cx="51" cy="13" r="2" fill="#63efff"/>
  <circle cx="13" cy="50" r="1.5" fill="#63efff"/>
</svg>
